PathFileType	4	(X/Y/Z)	 s11c0103.trc
DataRate	CameraRate	NumFrames	NumMarkers	Units	OrigDataRate	OrigDataStartFrame	OrigNumFrames
200	200	4	48	mm	200	1	2000
Frame#	Time	racr			lacr			c7			jug			rlel			rdr			llel			ldr			s2			lic			ric			lasi			rasi			rpsi			lpsi			rgt			lgt			rth1			rth2			rth3			rth4			rlfc			rmfc			rsh1			rsh2			rsh3			rsh4			rlmal			rcal			rtoe			rmt5			lth1			lth2			lth4			lth3			llfc			lmfc			llmal			lcal			lmt5			lsh1			lsh2			lsh3			lsh4			ltoe			SBIKE			LBIKE			RBIKE			
		X1	Y1	Z1	X2	Y2	Z2	X3	Y3	Z3	X4	Y4	Z4	X5	Y5	Z5	X6	Y6	Z6	X7	Y7	Z7	X8	Y8	Z8	X9	Y9	Z9	X10	Y10	Z10	X11	Y11	Z11	X12	Y12	Z12	X13	Y13	Z13	X14	Y14	Z14	X15	Y15	Z15	X16	Y16	Z16	X17	Y17	Z17	X18	Y18	Z18	X19	Y19	Z19	X20	Y20	Z20	X21	Y21	Z21	X22	Y22	Z22	X23	Y23	Z23	X24	Y24	Z24	X25	Y25	Z25	X26	Y26	Z26	X27	Y27	Z27	X28	Y28	Z28	X29	Y29	Z29	X30	Y30	Z30	X31	Y31	Z31	X32	Y32	Z32	X33	Y33	Z33	X34	Y34	Z34	X35	Y35	Z35	X36	Y36	Z36	X37	Y37	Z37	X38	Y38	Z38	X39	Y39	Z39	X40	Y40	Z40	X41	Y41	Z41	X42	Y42	Z42	X43	Y43	Z43	X44	Y44	Z44	X45	Y45	Z45	X46	Y46	Z46	X47	Y47	Z47	X48	Y48	Z48	
1	0.0050	459.204341	1393.892654	-65.085652	478.741757	1414.478815	-378.649990	406.980152	1495.503815	-222.659816	427.561535	1326.296103	-232.031361	582.209881	1151.477555	-17.534232	778.854750	923.033425	-66.104368	580.055518	1139.790867	-456.479010	800.014448	909.017573	-398.680567	-121.744294	1197.996970	-269.711828	106.890167	1205.385404	-455.672454	78.422127	1223.864225	-53.594737	140.224892	1132.486622	-425.743880	98.264878	1168.607276	-101.114534	-86.595679	1274.250502	-220.169902	-78.465545	1263.581133	-309.082032	37.937397	1110.287003	-25.917633	10.562025	1063.230773	-466.842937	172.677515	1067.312088	-20.383206	262.111054	1070.615007	-22.939226	339.638858	1028.828200	-26.680048	269.738776	1103.961804	-38.481924	449.450502	991.432040	-34.392265	465.133296	974.328732	-166.497069	383.589941	846.348156	-36.163865	360.192660	764.311337	-60.625820	299.083308	703.133600	-69.052925	384.728382	757.347257	-91.548809	220.130764	598.562266	-92.507336	154.579003	596.723090	-144.248953	421.536013	493.584490	-130.481241	344.990839	485.278020	-63.416729	89.631932	933.815704	-479.273425	147.249844	871.443270	-468.214864	180.029761	887.509076	-460.831989	166.251203	784.248169	-456.901841	227.739067	663.193248	-428.300862	237.308046	655.177144	-300.067347	64.086287	260.272168	-414.827344	8.332440	212.101511	-379.806619	212.133035	165.971837	-444.165211	173.941559	549.048939	-451.192856	168.258705	463.912376	-437.238094	120.145837	390.059407	-434.274472	197.386369	457.221378	-414.631054	305.561747	191.717130	-373.629631	-205.105226	951.667314	-261.746955	1.099167	82.602877	-460.634830	-15.361031	81.110763	-62.386598	
2	0.0100	459.068684	1393.831431	-65.026081	478.710371	1414.414940	-378.510925	406.815910	1495.574943	-222.569781	427.475194	1326.352724	-231.882717	582.147578	1151.428773	-17.480607	778.824707	923.056995	-66.074006	580.030687	1139.794310	-456.412550	800.006679	908.991538	-398.658220	-121.780245	1197.960872	-269.753483	106.828207	1205.371714	-455.643297	78.262663	1223.785343	-53.649273	140.164740	1132.465901	-425.747951	98.149344	1168.540763	-101.120116	-86.695990	1274.217082	-220.216008	-78.508993	1263.523114	-309.131223	37.869215	1110.190439	-25.978375	10.597552	1063.225021	-466.859905	172.634791	1067.172694	-20.438867	262.053494	1070.433360	-23.019050	339.589055	1028.613087	-26.779457	269.754924	1103.747010	-38.536289	449.356310	991.127232	-34.558258	465.069695	973.999079	-166.594568	384.227519	845.663091	-36.201212	361.343253	763.555094	-60.540563	300.578615	701.908459	-69.023107	385.936656	756.662922	-91.468652	222.015952	597.006256	-92.363750	156.673283	594.528280	-144.099875	424.373767	493.340014	-130.365281	347.943958	484.467996	-63.354597	90.070908	934.011908	-479.309632	147.950972	871.883464	-468.307485	180.619229	888.032716	-460.929340	167.271097	784.698919	-457.091213	228.944990	663.777717	-428.715358	238.501545	655.702008	-300.480675	61.999171	262.309772	-414.929548	5.875766	214.615738	-379.852076	209.336081	166.960855	-444.207042	174.428505	550.037459	-451.546142	168.053958	464.798554	-437.343545	119.308072	391.478765	-434.554874	197.094149	458.148323	-414.741137	302.878433	192.087473	-373.755501	-205.108676	951.660565	-261.749079	1.080898	82.670165	-460.608052	-15.334738	81.119840	-62.392035	
3	0.0150	458.942816	1393.784567	-64.972781	478.662279	1414.371814	-378.377820	406.661807	1495.705416	-222.564898	427.370154	1326.424201	-231.738580	582.067995	1151.408938	-17.457725	778.795150	923.077723	-66.060187	580.022211	1139.794963	-456.343680	799.970683	908.946659	-398.648111	-121.842409	1197.918634	-269.756667	106.774142	1205.387462	-455.630032	78.215042	1223.719561	-53.640540	140.101743	1132.469474	-425.774019	98.077552	1168.469389	-101.161906	-86.746141	1274.206951	-220.250045	-78.570632	1263.493139	-309.142641	37.766566	1110.089009	-26.039085	10.626204	1063.216006	-466.863938	172.577279	1066.989918	-20.498547	262.020261	1070.176949	-23.093374	339.499627	1028.313779	-26.870995	269.715652	1103.491138	-38.561524	449.228964	990.783021	-34.723041	464.977897	973.641780	-166.716775	384.846782	844.918727	-36.273904	362.458865	762.601501	-60.514276	301.939510	700.691499	-69.052796	386.961609	755.856264	-91.475333	224.062152	595.098072	-92.067801	158.768741	592.228337	-144.000606	427.148345	492.953787	-130.190019	350.793192	483.587465	-63.225558	90.507570	934.200587	-479.320557	148.600923	872.310132	-468.357942	181.225785	888.543677	-460.977694	168.307413	785.202734	-457.248072	230.198326	664.427745	-429.128493	239.801945	656.338576	-300.905631	60.037538	264.471976	-415.098482	3.485721	217.136718	-379.971920	206.553355	168.063609	-444.314649	174.925970	550.987951	-451.868090	167.863886	465.912919	-437.544511	118.502488	392.946347	-434.677321	196.752222	459.019647	-414.988162	300.324025	192.439036	-373.780236	-205.116693	951.651502	-261.729863	1.067071	82.621931	-460.641932	-15.331963	81.122300	-62.397030	
4	0.0200	458.857102	1393.737869	-64.889407	478.611601	1414.338469	-378.297631	406.527172	1495.732784	-222.433382	427.337992	1326.493892	-231.612212	582.002587	1151.354016	-17.425368	778.795037	923.098119	-66.000937	580.014884	1139.797063	-456.271624	799.941837	908.873126	-398.585974	-121.877235	1197.896740	-269.783358	106.762640	1205.431228	-455.734413	78.105785	1223.668090	-53.675622	140.046285	1132.456998	-425.786482	97.990843	1168.415535	-101.173137	-86.272440	1274.147146	-220.449418	-79.112819	1263.497349	-308.799869	37.684665	1109.941656	-26.079345	10.674937	1063.133404	-466.874902	172.548458	1066.746744	-20.548669	261.944490	1069.900344	-23.168318	339.456332	1027.873075	-26.891606	269.713914	1103.222951	-38.600424	449.142718	990.260504	-34.847927	464.848070	973.246088	-166.861755	385.420611	844.108888	-36.285720	363.552333	761.702265	-60.401595	303.412248	699.330763	-69.097524	388.299997	755.264465	-91.257024	226.036718	593.536475	-91.942990	160.965739	589.907945	-143.844559	429.895346	492.539994	-130.186516	353.586364	482.673923	-63.118124	90.937759	934.430100	-479.320299	149.294916	872.751043	-468.499796	181.802553	889.467168	-461.149601	169.336684	785.674756	-457.453776	231.426569	665.080546	-429.548735	241.193482	656.963580	-301.334800	58.122691	266.661414	-415.244221	1.135106	219.811264	-380.004444	203.860355	169.170381	-444.327190	175.408327	552.064496	-452.180622	167.677392	467.045286	-437.744682	117.714450	394.474667	-434.825440	196.539945	460.007247	-415.298336	297.796146	192.883353	-373.900784	-205.351316	951.842137	-262.573197	1.061599	82.687127	-460.609150	-15.331339	81.118401	-62.370811	
